<?xml version="1.0" encoding="UTF-8" standalone="no"?>
<svg
   style="height: 512px; width: 512px;"
   viewBox="0 0 512 512"
   version="1.1"
   id="svg3"
   sodipodi:docname="martini.svg"
   inkscape:version="1.3.2 (091e20e, 2023-11-25, custom)"
   xmlns:inkscape="http://www.inkscape.org/namespaces/inkscape"
   xmlns:sodipodi="http://sodipodi.sourceforge.net/DTD/sodipodi-0.dtd"
   xmlns="http://www.w3.org/2000/svg"
   xmlns:svg="http://www.w3.org/2000/svg">
  <sodipodi:namedview
     id="namedview3"
     pagecolor="#505050"
     bordercolor="#ffffff"
     borderopacity="1"
     inkscape:showpageshadow="0"
     inkscape:pageopacity="0"
     inkscape:pagecheckerboard="1"
     inkscape:deskcolor="#505050"
     inkscape:zoom="1.6035156"
     inkscape:cx="256"
     inkscape:cy="256"
     inkscape:window-width="1920"
     inkscape:window-height="1017"
     inkscape:window-x="-8"
     inkscape:window-y="-8"
     inkscape:window-maximized="1"
     inkscape:current-layer="svg3" />
  <defs
     id="defs2">
    <filter
       id="shadow-1"
       height="1.1505681"
       width="1.1845998"
       x="-0.092299882"
       y="-0.07528404">
      <feComposite
         in="flood"
         in2="SourceGraphic"
         operator="out"
         result="composite"
         id="feComposite1" />
      <feGaussianBlur
         in="composite"
         stdDeviation="15"
         result="blur"
         id="feGaussianBlur1" />
      <feOffset
         dx="0"
         dy="0"
         result="offset"
         id="feOffset1" />
      <feComposite
         in2="SourceGraphic"
         in="offset"
         operator="atop"
         id="feComposite2" />
    </filter>
    <filter
       style="color-interpolation-filters:sRGB;"
       inkscape:label="Drop Shadow"
       id="filter4"
       x="-0.18459976"
       y="-0.15056808"
       width="1.3691995"
       height="1.3011362">
      <feFlood
         result="flood"
         in="SourceGraphic"
         flood-opacity="1.000000"
         flood-color="rgb(58,63,94)"
         id="feFlood3" />
      <feGaussianBlur
         result="blur"
         in="SourceGraphic"
         stdDeviation="15.000000"
         id="feGaussianBlur3" />
      <feOffset
         result="offset"
         in="blur"
         dx="0.000000"
         dy="0.000000"
         id="feOffset3" />
      <feComposite
         result="comp1"
         operator="out"
         in="flood"
         in2="offset"
         id="feComposite3" />
      <feComposite
         result="comp2"
         operator="atop"
         in="comp1"
         in2="SourceGraphic"
         id="feComposite4" />
    </filter>
  </defs>
  <path
     d="M0 0h512v512H0z"
     fill="#1b1f21"
     fill-opacity="1"
     id="path2" />
  <g
     class=""
     style="filter:url(#filter4)"
     transform="translate(0,0)"
     id="g3">
    <path
       d="M382.313 17.156L347 80.594H58.937l13.657 15.53 172.03 195.5v155.063l-118.343 35.438v13.22h255.376v-13.22l-118.344-35.438V291.595l172-195.47 13.657-15.53h-80.595l30.28-54.344-16.342-9.094zM100.25 99.28h236.344l-12.25 21.97c-5.352-2.042-11.14-3.188-17.188-3.188-17.4 0-32.74 9.283-41.344 23.126H137.125L100.25 99.28zm257.72 0h49.686l-36.875 41.907h-22.31c-2.3-3.7-5.08-7.073-8.25-10.03l17.75-31.876zm-50.814 37.47c16.652 0 29.938 13.33 29.938 30s-13.286 29.97-29.938 29.97-29.97-13.3-29.97-29.97c.002-1.01.062-2.017.158-3 2.26 3.716 6.303 6.22 10.97 6.22 7.112 0 12.905-5.79 12.905-12.907 0-7.118-5.794-12.875-12.908-12.875-.35 0-.688.035-1.03.062 5.276-4.67 12.213-7.5 19.874-7.5z"
       fill="#e64539"
       fill-opacity="1"
       filter="url(#shadow-1)"
       id="path3" />
  </g>
</svg>
