<?xml version="1.0" encoding="UTF-8" standalone="no"?>
<svg
   style="height: 512px; width: 512px;"
   viewBox="0 0 512 512"
   version="1.1"
   id="svg3"
   sodipodi:docname="pig.svg"
   inkscape:version="1.3.2 (091e20e, 2023-11-25, custom)"
   xmlns:inkscape="http://www.inkscape.org/namespaces/inkscape"
   xmlns:sodipodi="http://sodipodi.sourceforge.net/DTD/sodipodi-0.dtd"
   xmlns="http://www.w3.org/2000/svg"
   xmlns:svg="http://www.w3.org/2000/svg">
  <sodipodi:namedview
     id="namedview3"
     pagecolor="#505050"
     bordercolor="#ffffff"
     borderopacity="1"
     inkscape:showpageshadow="0"
     inkscape:pageopacity="0"
     inkscape:pagecheckerboard="1"
     inkscape:deskcolor="#505050"
     inkscape:zoom="1.6035156"
     inkscape:cx="256"
     inkscape:cy="256"
     inkscape:window-width="1920"
     inkscape:window-height="1017"
     inkscape:window-x="-8"
     inkscape:window-y="-8"
     inkscape:window-maximized="1"
     inkscape:current-layer="svg3" />
  <defs
     id="defs2">
    <filter
       id="shadow-1"
       height="1.2520912"
       width="1.153384"
       x="-0.076692018"
       y="-0.12604562">
      <feComposite
         in="flood"
         in2="SourceGraphic"
         operator="out"
         result="composite"
         id="feComposite1" />
      <feGaussianBlur
         in="composite"
         stdDeviation="15"
         result="blur"
         id="feGaussianBlur1" />
      <feOffset
         dx="0"
         dy="0"
         result="offset"
         id="feOffset1" />
      <feComposite
         in2="SourceGraphic"
         in="offset"
         operator="atop"
         id="feComposite2" />
    </filter>
    <filter
       style="color-interpolation-filters:sRGB;"
       inkscape:label="Drop Shadow"
       id="filter4"
       x="-0.15338403"
       y="-0.25209124"
       width="1.306768"
       height="1.5041824">
      <feFlood
         result="flood"
         in="SourceGraphic"
         flood-opacity="1.000000"
         flood-color="rgb(58,63,94)"
         id="feFlood3" />
      <feGaussianBlur
         result="blur"
         in="SourceGraphic"
         stdDeviation="15.000000"
         id="feGaussianBlur3" />
      <feOffset
         result="offset"
         in="blur"
         dx="0.000000"
         dy="0.000000"
         id="feOffset3" />
      <feComposite
         result="comp1"
         operator="out"
         in="flood"
         in2="offset"
         id="feComposite3" />
      <feComposite
         result="comp2"
         operator="atop"
         in="comp1"
         in2="SourceGraphic"
         id="feComposite4" />
    </filter>
  </defs>
  <path
     d="M0 0h512v512H0z"
     fill="#1b1f21"
     fill-opacity="1"
     id="path2" />
  <g
     class=""
     style="filter:url(#filter4)"
     transform="translate(0,0)"
     id="g3">
    <path
       d="M213.705 344.935l2.7 53.87h-26.24l-19.46-55.41zm150.56.33l-.34 4.38 18.15 49.16h24.44l-5.66-56.51a326.16 326.16 0 0 1-36.57 2.97zm32.79-164.08a90.06 90.06 0 0 0 13.05-1.12c51.2-7.62 36.49-49.56 36.49-49.56s-40.36 9-52.83 23.42c.02 0-28.12 27.26 3.31 27.26zm81.85-25.33s-6.81 0-15.92.82a47 47 0 0 1-13.28 22.9 116.55 116.55 0 0 1 7.44 14.09c25.25-9.43 21.79-37.81 21.79-37.81zm11.8 100.18v41.49s-53.15 31.9-134.5 31.9c-2.19 0-4.44-.15-6.67-.2l-5.48 69.58h-19l-24.45-66.86-162.59-5.87-9.4 72.73h-22.63s-48.15-101.58-23.18-182.06c-5.55-3.84-11.38-8.17-16.73-12.7-5.13 2.65-10.26 4.11-15 3.85-15.76-.85-28.37-12.73-29.78-14.09l11.16-11.46c2.6 2.5 11.21 9.13 19.48 9.57a7.93 7.93 0 0 0 1.7-.11 46.36 46.36 0 0 1-4.59-6.47c-5.65-9.83-7-20.32-3.84-28.79a25.1 25.1 0 0 1 15.94-14.87c11.29-3.81 26.85-3.35 34.75 4.9 2.94 3.07 7.24 9.84 3 20.7-3.59 9.29-10.85 19.34-19.36 27.12 2.87 2.3 5.94 4.61 9.09 6.87 9.46-20.85 24.84-39.58 48.52-53.76a238.9 238.9 0 0 1 124-34.31 259.14 259.14 0 0 1 120.54 30.12 80.94 80.94 0 0 0-7.77 9.25c-7.6 10.67-9.67 20.49-6.15 29.19 2.85 7 10.23 15.42 29.24 15.42a105 105 0 0 0 15.41-1.3 80.49 80.49 0 0 0 24-7.18c15.75 25.72 17.22 58.67 28 61 12.79 2.72 26.29 6.34 26.29 6.34zm-406.69-94.52c.43-1.12 1.05-3.11.32-3.87-1.32-1.38-4.81-2.26-8.92-2.26a29.18 29.18 0 0 0-9.16 1.42c-3.13 1.05-5.12 2.81-6.09 5.38-1.46 3.95-.46 9.62 2.75 15.19a36.3 36.3 0 0 0 4.79 6.25c6.66-5.82 13.19-14.04 16.31-22.11zm331.14 81.55a9.05 9.05 0 1 0-9.05 9.05 9.05 9.05 0 0 0 9.05-9.05z"
       fill="#e64539"
       fill-opacity="1"
       filter="url(#shadow-1)"
       id="path3" />
  </g>
</svg>
