<?xml version="1.0" encoding="UTF-8" standalone="no"?>
<svg
   style="height: 512px; width: 512px;"
   viewBox="0 0 512 512"
   version="1.1"
   id="svg3"
   sodipodi:docname="stardust-item.svg"
   inkscape:version="1.3.2 (091e20e, 2023-11-25, custom)"
   xmlns:inkscape="http://www.inkscape.org/namespaces/inkscape"
   xmlns:sodipodi="http://sodipodi.sourceforge.net/DTD/sodipodi-0.dtd"
   xmlns="http://www.w3.org/2000/svg"
   xmlns:svg="http://www.w3.org/2000/svg">
  <sodipodi:namedview
     id="namedview3"
     pagecolor="#505050"
     bordercolor="#ffffff"
     borderopacity="1"
     inkscape:showpageshadow="0"
     inkscape:pageopacity="0"
     inkscape:pagecheckerboard="1"
     inkscape:deskcolor="#505050"
     inkscape:zoom="1.6035156"
     inkscape:cx="256"
     inkscape:cy="256"
     inkscape:window-width="1920"
     inkscape:window-height="1017"
     inkscape:window-x="-8"
     inkscape:window-y="-8"
     inkscape:window-maximized="1"
     inkscape:current-layer="svg3" />
  <defs
     id="defs2">
    <filter
       id="shadow-1"
       height="1.1557703"
       width="1.1515994"
       x="-0.075799704"
       y="-0.077885158">
      <feComposite
         in="flood"
         in2="SourceGraphic"
         operator="out"
         result="composite"
         id="feComposite1" />
      <feGaussianBlur
         in="composite"
         stdDeviation="15"
         result="blur"
         id="feGaussianBlur1" />
      <feOffset
         dx="0"
         dy="0"
         result="offset"
         id="feOffset1" />
      <feComposite
         in2="SourceGraphic"
         in="offset"
         operator="atop"
         id="feComposite2" />
    </filter>
    <filter
       style="color-interpolation-filters:sRGB;"
       inkscape:label="Drop Shadow"
       id="filter4"
       x="-0.15159941"
       y="-0.15577032"
       width="1.3031988"
       height="1.3115406">
      <feFlood
         result="flood"
         in="SourceGraphic"
         flood-opacity="1.000000"
         flood-color="rgb(58,63,94)"
         id="feFlood3" />
      <feGaussianBlur
         result="blur"
         in="SourceGraphic"
         stdDeviation="15.000000"
         id="feGaussianBlur3" />
      <feOffset
         result="offset"
         in="blur"
         dx="0.000000"
         dy="0.000000"
         id="feOffset3" />
      <feComposite
         result="comp1"
         operator="out"
         in="flood"
         in2="offset"
         id="feComposite3" />
      <feComposite
         result="comp2"
         operator="atop"
         in="comp1"
         in2="SourceGraphic"
         id="feComposite4" />
    </filter>
  </defs>
  <path
     d="M0 0h512v512H0z"
     fill="#1b1f21"
     fill-opacity="1"
     id="path2" />
  <g
     class=""
     style="filter:url(#filter4)"
     transform="translate(0,0)"
     id="g3">
    <path
       d="M436.406 29.625l-18.094 42.22-48.562 5.905 42.156 25.656 1.375 13.47C367.938 90.74 302.435 75.36 214.78 82.31l-20.186-3.343-24.125-38.407.5 39.78-49.22 16.438 55.063 4.564 7.843 33.78 17.094-37.78 17.906-2.75c203.993 22.03 277.475 204.75 77.875 207.625l5.22-37.595 36.75-43.72-51.344-24.968-30.22-48.468-39.623 41.124-4.125 1.03C-8.4 163.078-31.708 304.485 98.844 376.125l-11.938 12.688L39.844 374.5l33.03 39.406-15.124 42.53 36.375-31.155 47.03 18.095-30.374-43.875 4.69-15.03c62.43 28.648 153.852 42.16 270.5 20.717-241.042 33.38-364.142-137.94-219.283-195.687l23.032 43.25-4 56.97 56.218-9.97 19.25 7.813c218.255 102.608 297.46-83.917 171.843-177.75l14.376-22.22 46.47-16.5-41.907-14.812-15.564-46.655zM34.53 79.03l4.845 26.095-19.47 22 27.22-3.25 17.563 23.344.687-29.47 24.78-17.906-33.218-1.72-22.406-19.093zm358.564 298.5l14.25 51.658-31.375 41.062 49.592-12.688 33.688 34.282-2.53-51.406 35.217-30.375-51.593 1.562-47.25-34.094z"
       fill="#e64539"
       fill-opacity="1"
       filter="url(#shadow-1)"
       id="path3" />
  </g>
</svg>
