<?xml version="1.0" encoding="UTF-8" standalone="no"?>
<svg
   style="height: 512px; width: 512px;"
   viewBox="0 0 512 512"
   version="1.1"
   id="svg3"
   sodipodi:docname="wakeup-item.svg"
   inkscape:version="1.3.2 (091e20e, 2023-11-25, custom)"
   xmlns:inkscape="http://www.inkscape.org/namespaces/inkscape"
   xmlns:sodipodi="http://sodipodi.sourceforge.net/DTD/sodipodi-0.dtd"
   xmlns="http://www.w3.org/2000/svg"
   xmlns:svg="http://www.w3.org/2000/svg">
  <sodipodi:namedview
     id="namedview3"
     pagecolor="#505050"
     bordercolor="#ffffff"
     borderopacity="1"
     inkscape:showpageshadow="0"
     inkscape:pageopacity="0"
     inkscape:pagecheckerboard="1"
     inkscape:deskcolor="#505050"
     inkscape:zoom="1.6035156"
     inkscape:cx="256"
     inkscape:cy="256"
     inkscape:window-width="1920"
     inkscape:window-height="1017"
     inkscape:window-x="-8"
     inkscape:window-y="-8"
     inkscape:window-maximized="1"
     inkscape:current-layer="svg3" />
  <defs
     id="defs2">
    <filter
       id="shadow-1"
       height="1"
       width="1"
       x="0"
       y="0">
      <feComposite
         in2="SourceGraphic"
         in="offset"
         operator="atop"
         id="feComposite2" />
    </filter>
    <filter
       style="color-interpolation-filters:sRGB;"
       inkscape:label="Drop Shadow"
       id="filter4"
       x="-0.084065403"
       y="-0.079120879"
       width="1.1681308"
       height="1.1582418">
      <feFlood
         result="flood"
         in="SourceGraphic"
         flood-opacity="1.000000"
         flood-color="rgb(58,63,94)"
         id="feFlood3" />
      <feGaussianBlur
         result="blur"
         in="SourceGraphic"
         stdDeviation="15.000000"
         id="feGaussianBlur3" />
      <feOffset
         result="offset"
         in="blur"
         dx="0.000000"
         dy="0.000000"
         id="feOffset3" />
      <feComposite
         result="comp1"
         operator="out"
         in="flood"
         in2="offset"
         id="feComposite3" />
      <feComposite
         result="comp2"
         operator="atop"
         in="comp1"
         in2="SourceGraphic"
         id="feComposite4" />
    </filter>
  </defs>
  <path
     d="M0 0h512v512H0z"
     fill="#1b1f21"
     fill-opacity="1"
     id="path2" />
  <g
     class=""
     style="filter:url(#filter4)"
     transform="translate(0,0)"
     id="g3">
    <path
       d="M144 32S94.11 69.4 96 96c1.604 22.57 44.375 25.665 48 48 1.91 11.772-16 32-16 32s48-25.373 48-48-42.8-25.978-48-48c-3.875-16.414 16-48 16-48zm80 0s-49.89 37.4-48 64c1.604 22.57 44.375 25.665 48 48 1.91 11.772-16 32-16 32s48-25.373 48-48-42.8-25.978-48-48c-3.875-16.414 16-48 16-48zm80 0s-49.89 37.4-48 64c1.604 22.57 44.375 25.665 48 48 1.91 11.772-16 32-16 32s48-25.373 48-48-42.8-25.978-48-48c-3.875-16.414 16-48 16-48zM73.293 201c1.43 63.948 18.943 179.432 74.707 238h152c55.764-58.568 73.278-174.052 74.707-238H73.293zm319.598.445c-.186 9.152-.652 19.252-1.472 30.057C419.312 235.162 441 259.142 441 288c0 31.374-25.626 57-57 57-4.387 0-8.656-.517-12.764-1.465-2.912 9.62-6.176 19.165-9.84 28.51C368.602 373.97 376.176 375 384 375c48.155 0 87-38.845 87-87 0-45.153-34.153-82.12-78.11-86.555zM42.763 457c1.507 5.193 3.854 11.2 6.955 16.37 2.637 4.394 5.69 8.207 8.428 10.58C60.882 486.32 63 487 64 487h320c1 0 3.118-.678 5.855-3.05 2.738-2.373 5.79-6.186 8.428-10.58 3.1-5.17 5.448-11.177 6.955-16.37H42.762z"
       fill="#e64539"
       fill-opacity="1"
       filter="url(#shadow-1)"
       id="path3" />
  </g>
</svg>
