<?xml version="1.0" encoding="UTF-8" standalone="no"?>
<svg
   style="height: 512px; width: 512px;"
   viewBox="0 0 512 512"
   version="1.1"
   id="svg3"
   sodipodi:docname="wine-bottle.svg"
   inkscape:version="1.3.2 (091e20e, 2023-11-25, custom)"
   xmlns:inkscape="http://www.inkscape.org/namespaces/inkscape"
   xmlns:sodipodi="http://sodipodi.sourceforge.net/DTD/sodipodi-0.dtd"
   xmlns="http://www.w3.org/2000/svg"
   xmlns:svg="http://www.w3.org/2000/svg">
  <sodipodi:namedview
     id="namedview3"
     pagecolor="#505050"
     bordercolor="#ffffff"
     borderopacity="1"
     inkscape:showpageshadow="0"
     inkscape:pageopacity="0"
     inkscape:pagecheckerboard="1"
     inkscape:deskcolor="#505050"
     inkscape:zoom="1.6035156"
     inkscape:cx="256"
     inkscape:cy="256"
     inkscape:window-width="1920"
     inkscape:window-height="1017"
     inkscape:window-x="-8"
     inkscape:window-y="-8"
     inkscape:window-maximized="1"
     inkscape:current-layer="svg3" />
  <defs
     id="defs2">
    <filter
       id="shadow-1"
       height="1"
       width="1"
       x="0"
       y="0">
      <feOffset
         dx="0"
         dy="0"
         result="offset"
         id="feOffset1" />
      <feComposite
         in2="SourceGraphic"
         in="offset"
         operator="atop"
         id="feComposite2" />
    </filter>
    <filter
       style="color-interpolation-filters:sRGB;"
       inkscape:label="Drop Shadow"
       id="filter4"
       x="-0.10865958"
       y="-0.077253219"
       width="1.2173192"
       height="1.1545064">
      <feFlood
         result="flood"
         in="SourceGraphic"
         flood-opacity="1.000000"
         flood-color="rgb(58,63,94)"
         id="feFlood3" />
      <feGaussianBlur
         result="blur"
         in="SourceGraphic"
         stdDeviation="15.000000"
         id="feGaussianBlur3" />
      <feOffset
         result="offset"
         in="blur"
         dx="0.000000"
         dy="0.000000"
         id="feOffset3" />
      <feComposite
         result="comp1"
         operator="out"
         in="flood"
         in2="offset"
         id="feComposite3" />
      <feComposite
         result="comp2"
         operator="atop"
         in="comp1"
         in2="SourceGraphic"
         id="feComposite4" />
    </filter>
  </defs>
  <path
     d="M0 0h512v512H0z"
     fill="#1b1f21"
     fill-opacity="1"
     id="path2" />
  <g
     class=""
     style="filter:url(#filter4)"
     transform="translate(0,0)"
     id="g3">
    <path
       d="M133.99 28v23.512h52.02V28h-52.02zm0 41.51v90.705c-26.01 17.34-43.347 39.014-43.347 56.353v260.735S90.64 494 107.98 494h103.967c17.411 0 17.41-17.34 17.41-17.34V216.568c0-17.34-17.338-39.014-43.347-56.353V69.51h-52.02zM107 252h106v162H107V252zm194.514 3l-2.051 6.154c-8.474 25.423-12.793 58.44-6.233 86.87 3.28 14.215 9.429 27.45 19.846 37.273 8.61 8.118 20.105 13.533 33.924 15.172v74.64C327.601 479.296 302 494 302 494h108s-25.601-14.705-45-18.89v-74.641c13.82-1.639 25.314-7.054 33.924-15.172 10.417-9.822 16.565-23.058 19.846-37.274 6.56-28.43 2.241-61.446-6.233-86.869l-2.05-6.154H301.513zM125 270v126h70V270h-70zm189.703 3h82.594c2.639 9.261 4.629 19.565 5.68 30h-93.954c1.051-10.435 3.041-20.739 5.68-30zm-6.486 48h95.566c-.116 8.04-.907 15.846-2.553 22.977-2.72 11.784-7.571 21.548-14.654 28.226C379.494 378.881 370.126 383 356 383c-14.125 0-23.494-4.12-30.576-10.797-7.083-6.678-11.935-16.442-14.654-28.226-1.646-7.131-2.437-14.938-2.553-22.977z"
       fill="#e64539"
       fill-opacity="1"
       filter="url(#shadow-1)"
       id="path3" />
  </g>
</svg>
