<?xml version="1.0" encoding="UTF-8" standalone="no"?>
<svg
   style="height: 512px; width: 512px;"
   viewBox="0 0 512 512"
   version="1.1"
   id="svg3"
   sodipodi:docname="yin-yang.svg"
   inkscape:version="1.3.2 (091e20e, 2023-11-25, custom)"
   xmlns:inkscape="http://www.inkscape.org/namespaces/inkscape"
   xmlns:sodipodi="http://sodipodi.sourceforge.net/DTD/sodipodi-0.dtd"
   xmlns="http://www.w3.org/2000/svg"
   xmlns:svg="http://www.w3.org/2000/svg">
  <sodipodi:namedview
     id="namedview3"
     pagecolor="#505050"
     bordercolor="#ffffff"
     borderopacity="1"
     inkscape:showpageshadow="0"
     inkscape:pageopacity="0"
     inkscape:pagecheckerboard="1"
     inkscape:deskcolor="#505050"
     inkscape:zoom="1.6035156"
     inkscape:cx="256"
     inkscape:cy="256"
     inkscape:window-width="1920"
     inkscape:window-height="1017"
     inkscape:window-x="-8"
     inkscape:window-y="-8"
     inkscape:window-maximized="1"
     inkscape:current-layer="svg3" />
  <defs
     id="defs2">
    <filter
       id="shadow-1"
       height="1"
       width="1"
       x="0"
       y="0">
      <feOffset
         dx="0"
         dy="0"
         result="offset"
         id="feOffset1" />
      <feComposite
         in="offset"
         in2="SourceGraphic"
         operator="atop"
         id="feComposite2" />
    </filter>
    <filter
       style="color-interpolation-filters:sRGB;"
       inkscape:label="Drop Shadow"
       id="filter4"
       x="-0.077253219"
       y="-0.077253219"
       width="1.1545064"
       height="1.1545064">
      <feFlood
         result="flood"
         in="SourceGraphic"
         flood-opacity="1.000000"
         flood-color="rgb(58,63,94)"
         id="feFlood3" />
      <feGaussianBlur
         result="blur"
         in="SourceGraphic"
         stdDeviation="15.000000"
         id="feGaussianBlur3" />
      <feOffset
         result="offset"
         in="blur"
         dx="0.000000"
         dy="0.000000"
         id="feOffset3" />
      <feComposite
         result="comp1"
         operator="out"
         in="flood"
         in2="offset"
         id="feComposite3" />
      <feComposite
         result="comp2"
         operator="atop"
         in="comp1"
         in2="SourceGraphic"
         id="feComposite4" />
    </filter>
  </defs>
  <path
     d="M0 0h512v512H0z"
     fill="#1b1f21"
     fill-opacity="1"
     id="path2" />
  <g
     class=""
     style="filter:url(#filter4)"
     transform="translate(0,0)"
     id="g3">
    <path
       d="M256 23C127.424 23 23 127.424 23 256s104.424 233 233 233 233-104.424 233-233S384.576 23 256 23zm-6.094 18.09C128.036 47.807 130.066 256 256 256c125.215 0 127.935 205.872 8.168 214.83-2.71.1-5.432.17-8.168.17-118.848 0-215-96.152-215-215 0-116.81 92.883-211.69 208.906-214.91zM256 103c22.537 0 41 18.463 41 41s-18.463 41-41 41-41-18.463-41-41 18.463-41 41-41zm0 224c-22.537 0-41 18.463-41 41s18.463 41 41 41 41-18.463 41-41-18.463-41-41-41z"
       fill="#e64539"
       fill-opacity="1"
       filter="url(#shadow-1)"
       id="path3" />
  </g>
</svg>
